<?xml version="1.0" standalone="no"?>
<!DOCTYPE svg PUBLIC "-//W3C//DTD SVG 20010904//EN"
 "http://www.w3.org/TR/2001/REC-SVG-20010904/DTD/svg10.dtd">
<svg version="1.0" xmlns="http://www.w3.org/2000/svg"
 width="834.000000pt" height="834.000000pt" viewBox="0 0 834.000000 834.000000"
 preserveAspectRatio="xMidYMid meet">
<metadata>
Created by potrace 1.11, written by Peter Selinger 2001-2013
</metadata>
<g transform="translate(0.000000,834.000000) scale(0.100000,-0.100000)"
fill="#000000" stroke="none">
<path d="M3998 8335 c-2 -2 -58 -6 -126 -9 -68 -4 -128 -9 -135 -11 -7 -2 -41
-6 -77 -10 -244 -22 -650 -119 -924 -221 -226 -85 -518 -221 -652 -306 -34
-21 -64 -38 -67 -38 -12 0 -286 -188 -383 -263 -197 -151 -448 -385 -598 -557
-183 -210 -359 -457 -491 -690 -253 -446 -434 -970 -499 -1440 -36 -263 -41
-338 -41 -620 0 -212 7 -371 20 -452 2 -13 6 -49 10 -82 6 -55 9 -71 20 -141
2 -16 7 -48 10 -70 4 -22 8 -48 11 -57 3 -10 8 -30 10 -45 39 -217 173 -629
276 -853 74 -159 82 -175 155 -308 268 -489 645 -931 1091 -1279 498 -389
1109 -672 1712 -792 180 -36 233 -45 345 -57 33 -3 71 -8 85 -10 103 -17 495
-23 690 -11 132 8 405 40 450 52 8 2 31 7 50 10 133 22 450 106 583 154 162
59 223 83 332 132 248 110 559 287 735 419 19 15 62 46 95 71 625 465 1148
1180 1410 1928 40 116 109 343 119 396 3 11 14 61 25 112 21 94 55 295 66 393
3 30 8 71 10 90 16 124 22 510 11 660 -12 163 -21 244 -52 450 -38 254 -172
701 -280 938 -13 29 -24 55 -24 58 0 2 -31 66 -69 142 -294 588 -676 1049
-1226 1480 -18 14 -209 147 -250 174 -194 128 -533 302 -725 374 -19 7 -60 22
-90 34 -133 51 -477 151 -575 166 -22 3 -43 8 -46 9 -5 4 -165 31 -232 40 -15
2 -44 6 -65 9 -46 7 -113 13 -217 22 -75 6 -472 13 -477 9z"/>
</g>
</svg>
